<svg width="391" height="603" viewBox="0 0 391 603" fill="none" xmlns="http://www.w3.org/2000/svg">
<path fill-rule="evenodd" clip-rule="evenodd" d="M111.471 13.8513C106.978 19.4566 104.687 27.0202 100.105 42.1475L0.000166933 372.617C37.0119 353.322 77.2474 339.406 119.68 331.898L184.859 110.553C185.925 106.931 189.236 104.447 192.994 104.447C196.762 104.447 200.078 106.944 201.136 110.578L265.525 331.786C308.155 339.26 348.574 353.201 385.744 372.566L285.148 42.071C280.552 26.9697 278.253 19.419 273.76 13.8241C269.793 8.8847 264.634 5.04864 258.773 2.68142C252.135 0 244.278 0 228.563 0H156.713C140.978 0 133.111 0 126.466 2.68701C120.601 5.05913 115.438 8.90298 111.471 13.8513Z" fill="black"/>
<path fill-rule="evenodd" clip-rule="evenodd" d="M167.128 371.324L390.635 442.912L304.82 489.426L275.134 582.108L167.128 371.324Z" fill="url(#paint0_radial_12_37)"/>
<defs>
<radialGradient id="paint0_radial_12_37" cx="0" cy="0" r="1" gradientUnits="userSpaceOnUse" gradientTransform="translate(34.7018 519.194) rotate(-13.6287) scale(418.806 324.245)">
<stop stop-color="#FF0099"/>
<stop offset="1" stop-color="#FF7A00"/>
</radialGradient>
</defs>
</svg>
